<?xml version="1.0" encoding="utf-8"?><svg viewBox="0 0 800 800" xmlns="http://www.w3.org/2000/svg" xmlns:xlink="http://www.w3.org/1999/xlink"><style>:root>svg{display:none}:root>svg:target{display:block}</style><svg viewBox="0 0 38 38" id="github" xmlns="http://www.w3.org/2000/svg"><path d="M12.71 29.833c0 .153-.176.276-.398.276-.253.023-.43-.1-.43-.276 0-.153.177-.276.399-.276.23-.023.43.1.43.276zm-2.383-.345c-.053.154.1.33.33.376.199.076.429 0 .475-.154.046-.153-.1-.329-.33-.398-.199-.053-.421.023-.475.176zm3.387-.13c-.223.054-.376.2-.353.375.023.154.223.253.452.2.223-.054.376-.2.353-.353-.023-.145-.23-.245-.452-.222zM18.754 0C8.13 0 0 8.067 0 18.694 0 27.19 5.348 34.46 12.986 37.019c.98.177 1.325-.429 1.325-.927 0-.475-.023-3.095-.023-4.704 0 0-5.363 1.15-6.489-2.283 0 0-.873-2.23-2.13-2.804 0 0-1.754-1.203.123-1.18 0 0 1.908.154 2.957 1.977 1.678 2.957 4.49 2.107 5.585 1.601.177-1.226.675-2.076 1.226-2.582-4.283-.475-8.604-1.095-8.604-8.465 0-2.107.583-3.165 1.809-4.513-.2-.498-.85-2.551.199-5.202 1.6-.498 5.286 2.069 5.286 2.069a18.002 18.002 0 014.811-.652c1.632 0 3.28.223 4.812.652 0 0 3.685-2.575 5.286-2.069 1.05 2.659.398 4.704.2 5.202 1.225 1.356 1.976 2.413 1.976 4.513 0 7.393-4.513 7.983-8.796 8.465.705.606 1.303 1.755 1.303 3.555 0 2.582-.023 5.777-.023 6.405 0 .498.352 1.103 1.325.927C32.806 34.461 38 27.19 38 18.694 38 8.066 29.381 0 18.755 0zM7.448 26.424c-.1.076-.077.253.053.398.123.123.3.176.399.077.1-.077.076-.253-.054-.399-.122-.122-.299-.176-.398-.076zm-.828-.62c-.053.099.023.221.177.298.122.077.275.054.329-.054.054-.1-.023-.222-.176-.298-.153-.046-.276-.023-.33.053zm2.483 2.727c-.123.1-.077.33.1.475.175.176.398.199.497.076.1-.1.054-.33-.1-.475-.168-.176-.398-.199-.497-.076zm-.874-1.127c-.122.077-.122.276 0 .453.123.176.33.252.43.176.122-.1.122-.3 0-.475-.108-.177-.307-.253-.43-.154z"/></svg><svg viewBox="0 0 512 512" id="picture" xmlns="http://www.w3.org/2000/svg"><!--! Font Awesome Pro 6.2.1 by @fontawesome - https://fontawesome.com License - https://fontawesome.com/license (Commercial License) Copyright 2022 Fonticons, Inc.--><path d="M0 96c0-35.3 28.7-64 64-64h384c35.3 0 64 28.7 64 64v320c0 35.3-28.7 64-64 64H64c-35.3 0-64-28.7-64-64V96zm323.8 106.5c-4.5-6.6-11.9-10.5-19.8-10.5s-15.4 3.9-19.8 10.5l-87 127.6-26.5-33.1c-4.6-5.7-11.5-9-18.7-9s-14.2 3.3-18.7 9l-64 80c-5.8 7.2-6.9 17.1-2.9 25.4S78.8 416 88 416h336c8.9 0 17.1-4.9 21.2-12.8s3.6-17.4-1.4-24.7l-120-176zM112 192c26.5 0 48-21.5 48-48s-21.5-48-48-48-48 21.5-48 48 21.5 48 48 48z"/></svg><svg viewBox="0 0 24 24" id="telegram" xmlns="http://www.w3.org/2000/svg"><path d="M23.91 3.79L20.3 20.84c-.25 1.21-.98 1.5-2 .94l-5.5-4.07-2.66 2.57c-.3.3-.55.56-1.1.56-.72 0-.6-.27-.84-.95L6.3 13.7.85 12c-1.18-.35-1.19-1.16.26-1.75l21.26-8.2c.97-.43 1.9.24 1.53 1.73z"/></svg><svg viewBox="0 0 38 23" id="vk" xmlns="http://www.w3.org/2000/svg"><path d="M37.134 1.53c.261-.881 0-1.53-1.256-1.53h-4.155c-1.058 0-1.545.557-1.806 1.178 0 0-2.116 5.157-5.107 8.5-.966.967-1.41 1.277-1.94 1.277-.26 0-.663-.31-.663-1.192V1.531C22.207.473 21.911 0 21.036 0h-6.532c-.663 0-1.059.494-1.059.952 0 1.002 1.496 1.235 1.651 4.057v6.123c0 1.34-.24 1.587-.769 1.587-1.41 0-4.839-5.178-6.87-11.104C7.046.465 6.644 0 5.58 0H1.425C.24 0 0 .557 0 1.178c0 1.1 1.41 6.568 6.568 13.791 3.435 4.931 8.274 7.605 12.676 7.605 2.646 0 2.97-.593 2.97-1.616 0-4.712-.24-5.156 1.086-5.156.614 0 1.672.31 4.141 2.687 2.822 2.822 3.288 4.085 4.868 4.085h4.155c1.185 0 1.785-.593 1.439-1.764-.79-2.462-6.13-7.527-6.37-7.865-.614-.79-.438-1.143 0-1.848.007-.008 5.079-7.147 5.601-9.566z"/></svg></svg>